<?xml version="1.0" encoding="UTF-8"?>
<svg width="1507px" height="588px" viewBox="0 0 1507 588" version="1.1" xmlns="http://www.w3.org/2000/svg" xmlns:xlink="http://www.w3.org/1999/xlink">
    <title>idns_logo的副本</title>
    <g id="页面-1" stroke="none" stroke-width="1" fill="none" fill-rule="evenodd">
        <g id="logo" fill-rule="nonzero">
            <rect id="矩形" fill="#FFFFFF" x="0" y="0" width="1507" height="588"></rect>
            <g id="编组" transform="translate(586.000000, 157.000000)" fill="#3699EA">
                <g transform="translate(-0.000000, 0.000000)" id="形状">
                    <path d="M0,278 L42.8835165,278 L75.0461538,0 L31.3379544,0 L0,278 Z M105.574544,0 L75.0461538,278 L287.708994,278 L312.692308,52.26703 L264.005314,0 L105.574544,0 Z M125.076923,241.73913 L147.486111,36.2608696 L250.359058,36.2608696 L263.164309,50.270751 L275.169231,63.1430779 L255.961355,241.73913 L125.076923,241.73913 Z M342.29047,0 L312.692308,278 L353.042697,278 L375.669636,65.1444142 L505.87792,278 L546.169231,278 L575.353846,0 L535.417004,0 L513.558082,206.038147 L386.421862,0 L342.29047,0 Z M813,0 L617.268339,0 L601.623921,153.363236 L757.95047,153.363236 L749.187244,238.959966 L587.861538,238.959966 L593.213576,278 L784.357777,278 L801.590162,114.381471 L645.969375,114.381471 L653.615143,38.9817648 L769.419122,38.9817648 L767.125392,60.599455 L806.530504,60.599455 L813,0 Z"></path>
                </g>
            </g>
            <g id="编组" transform="translate(115.000000, 98.000000)" fill="#3699EA">
                <g transform="translate(0.000000, 0.000000)" id="形状">
                    <path d="M132.095616,19.1511298 C139.149545,26.0256069 149.805813,28.8458755 159.845386,26.4953339 L257.34819,3.67056785 C258.411149,3.48055942 259.126755,2.57500989 258.981234,1.60406443 C258.835713,0.633118968 257.879378,-0.0675186429 256.798837,0.00517893676 L130.759351,1.34781224 C127.792353,1.34703589 125.109782,2.9438715 123.937518,5.40859807 C122.765253,7.87332464 123.328454,10.7325383 125.369749,12.6796373 L132.095616,19.1511298 Z M308.775887,26.013958 C307.485062,21.4401046 304.526165,17.6407582 300.588667,15.5012262 C296.651169,13.3616942 292.078973,13.0688445 287.937472,14.6909158 L190.264842,52.8333922 C187.366495,53.9632151 185.329366,56.8106135 185.03623,60.1416898 C184.743095,63.472766 186.246696,66.6881526 188.89546,68.3944873 L335.478828,162.877186 C337.799446,164.364771 340.722309,164.151962 342.839591,162.341261 C344.956873,160.530561 345.834445,157.493235 345.049615,154.692245 L308.775887,26.013958 Z M161.248499,276.402568 C161.26868,280.10635 163.188499,283.520363 166.290534,285.368817 C169.39257,287.217271 173.210017,287.222005 176.316326,285.38125 L327.787637,195.326176 L327.924894,195.247278 C331.041992,193.398488 332.974627,189.974965 333,186.257535 C333.024877,182.540104 331.138705,179.08895 328.046901,177.195236 L175.126761,83.3530205 C172.093436,81.4876622 168.324681,81.4553973 165.261939,83.268566 C162.199198,85.0817347 160.316318,88.4598153 160.333333,92.1107856 L161.248499,276.402568 Z M406.057852,217.264702 C407.532297,214.389998 407.259976,210.927111 405.354396,208.31943 C403.448817,205.71175 400.236988,204.406771 397.057656,204.948431 C386.730692,206.735811 378.235776,214.098949 374.981418,224.083451 L333.056264,353.244839 C332.856561,353.929397 333.20335,354.654824 333.860778,354.927755 C334.518205,355.200685 335.2752,354.933493 335.616925,354.307896 L406.057852,217.264702 Z M398.856774,177.371314 C401.432561,177.926465 404.082243,176.869885 405.654691,174.660594 C407.227138,172.451304 407.438541,169.488058 406.197057,167.058209 L335.277425,28.0441024 C335.005725,27.4157595 334.299508,27.1372537 333.700045,27.4220422 C333.100581,27.7068307 332.834876,28.44707 333.106575,29.0754129 L379.631478,160.133696 C382.784275,168.963494 390.046063,175.474496 398.856774,177.371314 Z M109.893503,285.112341 C112.508394,287.062964 115.927967,287.297967 118.757033,285.721469 C121.586099,284.14497 123.351593,281.020587 123.333333,277.623069 L122.5623,104.039079 C122.541553,100.783676 120.776971,97.8260852 118.016809,96.4204434 C115.256647,95.0148015 111.984564,95.4074181 109.588055,97.431808 L4.65958268,186.297279 C1.61121897,188.868875 -0.114451436,192.822614 0.00590330392,196.959473 C0.126258044,201.096333 2.07845959,204.928972 5.27047759,207.295093 L109.893503,285.112341 Z M0.288073781,160.18017 C-0.272156615,161.250159 0.00451472769,162.57072 0.946113262,163.321012 C1.8877118,164.071305 3.2262905,164.037822 4.12980995,163.241376 L105.518238,68.3439849 C112.45558,61.8242033 112.862753,50.8795267 106.429322,43.8543357 L95.0559608,31.4870628 C92.3116641,28.4804204 88.3193579,26.9575754 84.2878528,27.3796225 C80.2563477,27.8016696 76.6597099,30.1189801 74.5869475,33.6299071 L0.288073781,160.18017 Z M165.380583,343.053441 C156.157823,338.950973 145.777111,342.565514 139.836475,351.947843 L125.066273,375.374439 C123.130657,378.428917 122.788718,382.522869 124.180885,385.974974 C125.573051,389.42708 128.464676,391.655494 131.668217,391.745042 L268.523149,395.999826 C269.866233,396.016163 271.027301,394.882302 271.282418,393.305036 C271.537535,391.72777 270.813805,390.157779 269.56248,389.573967 L165.380583,343.053441 Z M345.096952,241.274013 C345.833204,238.431031 344.815652,235.416859 342.517277,233.632547 C340.218902,231.848234 337.09055,231.643791 334.586344,233.114246 L189.421828,318.268344 C186.553742,319.948088 184.850743,323.117443 185.010308,326.478375 C185.169872,329.839307 187.165195,332.827215 190.179077,334.218379 L291.529201,381.021571 C295.414633,382.821003 299.883641,382.783333 303.739186,380.91865 C307.594731,379.053967 310.442811,375.552825 311.520558,371.353017 L345.096952,241.274013 Z M107.495099,340.763465 C113.178491,332.866275 111.810913,321.719945 104.401626,315.550378 L5.06510186,232.856439 C3.89400704,231.872768 2.21122099,231.901946 1.07249013,232.925667 C-0.0662407253,233.949389 -0.332857784,235.672727 0.439909185,237.014495 L71.980227,362.908622 C73.9049351,366.295837 77.3365562,368.45934 81.1221108,368.672223 C84.9076654,368.885106 88.5447562,367.119116 90.8113686,363.967602 L107.495099,340.763465 Z"></path>
                </g>
            </g>
        </g>
    </g>
</svg>